<?xml version="1.0" encoding="UTF-8"?><svg id="Livello_2" xmlns="http://www.w3.org/2000/svg" viewBox="0 0 103.16 72.78"><g id="Livello_1-2"><g><g><path d="m27.37,59.16c-.11-.03-.21-.11-.27-.22-.19-.41-.62-.96-2.26-1.58-7.66-2.89-13.83-8.54-17.37-15.9-3.56-7.4-4.09-15.76-1.49-23.54C8.49,10.35,13.72,4.09,20.7.26c.2-.11.44-.04.55.16.11.2.04.44-.16.55-6.8,3.73-11.9,9.84-14.35,17.2-2.53,7.59-2.01,15.73,1.46,22.94,3.45,7.18,9.47,12.68,16.93,15.5,1.49.56,2.33,1.18,2.71,2,.09.2,0,.44-.2.54-.09.04-.18.05-.27.02Z" style="fill:#be9e55;"/><path d="m20.96,52.82c-.84-2.2-.11-4.12-.11-4.12,0,0,1.82.95,2.65,3.16.72,1.9.86,3.17.23,4.43-1.31-.52-2.05-1.57-2.77-3.47Z" style="fill:#be9e55;"/><path d="m18.74,55.38c-2.35.08-3.85,1.49-3.85,1.49,0,0,1.58,1.31,3.93,1.24,2.03-.07,3.26-.43,4.18-1.5-.99-1-2.24-1.29-4.26-1.22Z" style="fill:#be9e55;"/><path d="m16.07,49.3c-.38-2.33.72-4.06.72-4.06,0,0,1.59,1.3,1.97,3.62.33,2,.2,3.28-.67,4.39-1.17-.77-1.7-1.95-2.02-3.95Z" style="fill:#be9e55;"/><path d="m13.56,51.33c-2.32-.4-4.07.69-4.07.69,0,0,1.28,1.6,3.61,2,2,.34,3.28.23,4.39-.63-.76-1.18-1.93-1.71-3.93-2.05Z" style="fill:#be9e55;"/><path d="m12.38,44.93c.1-2.35,1.52-3.83,1.52-3.83,0,0,1.3,1.59,1.2,3.94-.08,2.03-.46,3.26-1.53,4.16-1-.99-1.27-2.25-1.19-4.27Z" style="fill:#be9e55;"/><path d="m9.39,46.66c-2.2-.85-4.12-.14-4.12-.14,0,0,.94,1.83,3.13,2.68,1.89.74,3.17.88,4.43.26-.51-1.31-1.55-2.06-3.44-2.8Z" style="fill:#be9e55;"/><path d="m9.56,40.17c.56-2.29,2.25-3.45,2.25-3.45,0,0,.95,1.82.39,4.1-.49,1.97-1.1,3.1-2.33,3.77-.78-1.17-.8-2.46-.31-4.43Z" style="fill:#be9e55;"/><path d="m6.22,41.1c-1.98-1.28-4.01-.96-4.01-.96,0,0,.55,1.98,2.53,3.25,1.71,1.1,2.93,1.5,4.29,1.14-.24-1.39-1.11-2.33-2.81-3.43Z" style="fill:#be9e55;"/><path d="m7.67,34.6c1.01-2.13,2.9-2.93,2.9-2.93,0,0,.57,1.97-.44,4.1-.87,1.83-1.7,2.81-3.04,3.23-.53-1.3-.29-2.57.58-4.4Z" style="fill:#be9e55;"/><path d="m4.08,34.86c-1.68-1.65-3.73-1.75-3.73-1.75,0,0,.15,2.05,1.83,3.69,1.45,1.42,2.57,2.05,3.97,1.98.04-1.41-.62-2.51-2.07-3.93Z" style="fill:#be9e55;"/><path d="m6.88,28.87c1.42-1.88,3.43-2.29,3.43-2.29,0,0,.16,2.05-1.25,3.93-1.22,1.62-2.23,2.42-3.63,2.56-.25-1.38.23-2.57,1.45-4.19Z" style="fill:#be9e55;"/><path d="m3.33,28.36C2.01,26.41.02,25.9.02,25.9c0,0-.27,2.04,1.05,3.99,1.14,1.68,2.1,2.53,3.49,2.73.32-1.37-.1-2.58-1.24-4.26Z" style="fill:#be9e55;"/><path d="m7.19,22.9c1.76-1.56,3.82-1.56,3.82-1.56,0,0-.25,2.04-2.01,3.6-1.52,1.34-2.67,1.92-4.07,1.78.03-1.41.74-2.47,2.26-3.82Z" style="fill:#be9e55;"/><path d="m3.99,21.87c-.9-2.18-2.75-3.07-2.75-3.07,0,0-.67,1.94.24,4.12.78,1.87,1.56,2.9,2.88,3.38.59-1.28.42-2.55-.36-4.42Z" style="fill:#be9e55;"/><path d="m8.72,17.26c2.04-1.18,4.05-.76,4.05-.76,0,0-.65,1.95-2.69,3.12-1.76,1.01-3,1.35-4.34.93.31-1.37,1.22-2.27,2.98-3.29Z" style="fill:#be9e55;"/><path d="m5.75,15.57c-.45-2.31-2.08-3.56-2.08-3.56,0,0-1.04,1.77-.59,4.08.39,1.99.94,3.15,2.14,3.89.83-1.13.92-2.41.53-4.41Z" style="fill:#be9e55;"/><path d="m11.1,11.97c2.14-.99,4.1-.39,4.1-.39,0,0-.83,1.88-2.96,2.87-1.84.85-3.11,1.07-4.41.53.43-1.34,1.42-2.15,3.27-3Z" style="fill:#be9e55;"/><path d="m9.03,9.89c.09-2.35-1.21-3.94-1.21-3.94,0,0-1.42,1.48-1.51,3.84-.08,2.03.2,3.28,1.2,4.27,1.07-.91,1.45-2.14,1.52-4.17Z" style="fill:#be9e55;"/><path d="m14.33,7.15c2.19-.87,4.12-.17,4.12-.17,0,0-.93,1.83-3.12,2.7-1.89.75-3.16.9-4.43.29.5-1.31,1.54-2.07,3.42-2.82Z" style="fill:#be9e55;"/><path d="m12.97,4.84c.45-2.31-.59-4.08-.59-4.08,0,0-1.63,1.25-2.08,3.56-.39,1.99-.3,3.27.53,4.41,1.2-.74,1.75-1.89,2.14-3.89Z" style="fill:#be9e55;"/><path d="m18.9,3.95C21.19,2.29,21.81,0,21.81,0c0,0-2.37-.13-4.66,1.53-1.97,1.43-2.97,2.59-3.23,4.18,1.59.25,3.01-.34,4.98-1.77Z" style="fill:#be9e55;"/></g><g><path d="m75.91,59.21c.11-.03.21-.11.27-.22.19-.41.62-.97,2.26-1.59,7.65-2.92,13.8-8.59,17.32-15.96,3.53-7.41,4.03-15.77,1.41-23.55-2.54-7.55-7.8-13.8-14.79-17.6-.2-.11-.44-.03-.55.16-.11.2-.03.44.16.55,6.81,3.7,11.93,9.79,14.41,17.15,2.55,7.58,2.07,15.73-1.38,22.94-3.43,7.19-9.42,12.72-16.88,15.56-1.49.57-2.33,1.19-2.7,2.01-.09.2,0,.44.2.54.09.04.18.05.27.02Z" style="fill:#be9e55;"/><path d="m82.3,52.84c.83-2.21.09-4.12.09-4.12,0,0-1.81.96-2.64,3.17-.71,1.9-.84,3.18-.21,4.43,1.3-.53,2.05-1.58,2.76-3.48Z" style="fill:#be9e55;"/><path d="m84.52,55.4c2.35.07,3.85,1.47,3.85,1.47,0,0-1.57,1.32-3.93,1.25-2.03-.06-3.26-.42-4.18-1.48.98-1.01,2.23-1.3,4.26-1.24Z" style="fill:#be9e55;"/><path d="m87.17,49.3c.37-2.33-.73-4.06-.73-4.06,0,0-1.59,1.3-1.96,3.63-.32,2-.19,3.28.68,4.38,1.17-.78,1.69-1.95,2.01-3.96Z" style="fill:#be9e55;"/><path d="m89.69,51.33c2.32-.41,4.07.67,4.07.67,0,0-1.28,1.61-3.6,2.01-2,.35-3.28.24-4.39-.61.76-1.18,1.93-1.72,3.93-2.07Z" style="fill:#be9e55;"/><path d="m90.84,44.92c-.1-2.35-1.53-3.83-1.53-3.83,0,0-1.29,1.59-1.19,3.95.09,2.03.47,3.25,1.55,4.16.99-1,1.26-2.25,1.17-4.28Z" style="fill:#be9e55;"/><path d="m93.85,46.64c2.19-.86,4.12-.16,4.12-.16,0,0-.93,1.83-3.12,2.69-1.89.74-3.16.89-4.43.28.51-1.31,1.54-2.07,3.43-2.81Z" style="fill:#be9e55;"/><path d="m93.65,40.16c-.57-2.29-2.27-3.44-2.27-3.44,0,0-.95,1.82-.37,4.11.49,1.97,1.11,3.09,2.35,3.77.77-1.18.79-2.46.29-4.43Z" style="fill:#be9e55;"/><path d="m96.99,41.07c1.98-1.28,4.01-.98,4.01-.98,0,0-.55,1.98-2.52,3.26-1.7,1.11-2.92,1.51-4.28,1.16.23-1.39,1.1-2.34,2.8-3.44Z" style="fill:#be9e55;"/><path d="m95.52,34.58c-1.02-2.12-2.91-2.92-2.91-2.92,0,0-.56,1.97.46,4.1.88,1.83,1.71,2.81,3.05,3.22.52-1.31.28-2.57-.6-4.4Z" style="fill:#be9e55;"/><path d="m99.11,34.82c1.68-1.65,3.73-1.76,3.73-1.76,0,0-.14,2.05-1.82,3.7-1.45,1.42-2.56,2.06-3.96,1.99-.05-1.41.61-2.51,2.05-3.93Z" style="fill:#be9e55;"/><path d="m96.29,28.85c-1.42-1.88-3.44-2.28-3.44-2.28,0,0-.16,2.05,1.27,3.92,1.23,1.62,2.24,2.41,3.64,2.54.25-1.38-.24-2.57-1.47-4.19Z" style="fill:#be9e55;"/><path d="m99.84,28.32c1.31-1.96,3.3-2.47,3.3-2.47,0,0,.27,2.03-1.04,3.99-1.13,1.68-2.09,2.53-3.49,2.75-.33-1.37.09-2.58,1.23-4.26Z" style="fill:#be9e55;"/><path d="m95.96,22.88c-1.77-1.55-3.82-1.55-3.82-1.55,0,0,.26,2.04,2.03,3.59,1.52,1.34,2.67,1.91,4.07,1.76-.03-1.41-.75-2.47-2.28-3.81Z" style="fill:#be9e55;"/><path d="m99.15,21.83c.9-2.18,2.74-3.08,2.74-3.08,0,0,.67,1.94-.22,4.12-.77,1.88-1.55,2.9-2.86,3.39-.6-1.27-.42-2.55.35-4.42Z" style="fill:#be9e55;"/><path d="m94.41,17.24c-2.05-1.17-4.05-.75-4.05-.75,0,0,.66,1.94,2.7,3.11,1.76,1.01,3,1.34,4.34.91-.31-1.37-1.23-2.27-2.99-3.28Z" style="fill:#be9e55;"/><path d="m97.37,15.54c.44-2.31,2.07-3.57,2.07-3.57,0,0,1.05,1.76.61,4.08-.38,1.99-.93,3.15-2.13,3.89-.84-1.13-.93-2.41-.55-4.4Z" style="fill:#be9e55;"/><path d="m92.01,11.96c-2.14-.98-4.11-.38-4.11-.38,0,0,.83,1.88,2.97,2.85,1.85.84,3.11,1.06,4.41.52-.44-1.34-1.43-2.15-3.28-2.99Z" style="fill:#be9e55;"/><path d="m94.08,9.87c-.1-2.35,1.19-3.95,1.19-3.95,0,0,1.42,1.48,1.52,3.83.09,2.03-.19,3.28-1.18,4.28-1.07-.91-1.45-2.13-1.54-4.16Z" style="fill:#be9e55;"/><path d="m88.76,7.16c-2.19-.86-4.12-.16-4.12-.16,0,0,.93,1.83,3.13,2.69,1.89.74,3.16.89,4.43.28-.51-1.31-1.55-2.07-3.43-2.81Z" style="fill:#be9e55;"/><path d="m90.12,4.84c-.46-2.31.58-4.08.58-4.08,0,0,1.63,1.24,2.09,3.55.39,1.99.32,3.27-.51,4.41-1.2-.73-1.76-1.89-2.16-3.88Z" style="fill:#be9e55;"/><path d="m84.18,3.97c-2.3-1.65-2.92-3.94-2.92-3.94,0,0,2.37-.14,4.67,1.52,1.98,1.42,2.98,2.58,3.25,4.17-1.59.25-3.01-.33-4.99-1.75Z" style="fill:#be9e55;"/></g></g><g><path d="m32.04,48.89v.27c-.34,0-.6.02-.77.08-.17.06-.26.19-.26.4,0,.06.01.14.04.23.03.09.09.21.19.37l2.14,3.14,2.09-3.19c.08-.14.14-.25.17-.34s.04-.16.04-.2c0-.21-.11-.35-.33-.41-.13-.04-.36-.07-.68-.07v-.27h3.18v.27c-.29.01-.55.1-.79.26-.36.25-.76.72-1.21,1.4l-2.15,3.28v2.83c0,.56.09.91.27,1.05.18.14.59.23,1.23.26v.27h-4.44v-.27c.66-.04,1.07-.14,1.23-.29.16-.16.24-.55.24-1.19v-2.52l-1.9-2.79c-.66-.96-1.12-1.58-1.38-1.85-.27-.27-.59-.42-.97-.44v-.27h4.07Z" style="fill:#be9e55;"/><path d="m38.32,58.25c.53-.06.88-.15,1.04-.29.16-.14.24-.47.24-1.02v-6.47c0-.52-.08-.85-.23-1.01-.16-.16-.51-.26-1.04-.29v-.27h7.73l.05,2.08h-.37c-.12-.64-.31-1.06-.55-1.25-.25-.19-.79-.28-1.65-.28h-1.98c-.21,0-.35.03-.4.1-.05.07-.07.2-.07.39v3.25h2.24c.62,0,1.02-.09,1.19-.28.17-.18.31-.56.41-1.12h.34v3.36h-.34c-.11-.56-.25-.94-.42-1.12-.17-.18-.56-.27-1.18-.27h-2.24v3.6c0,.29.09.46.27.51.18.05.73.08,1.64.08.99,0,1.71-.11,2.18-.32.47-.22.89-.74,1.27-1.57h.4l-.66,2.46h-7.86v-.27Z" style="fill:#be9e55;"/><path d="m47.26,58.52v-.27c.37-.04.65-.18.84-.42.19-.24.51-.89.96-1.96l3.03-7.14h.29l3.62,8.25c.24.55.44.88.58,1.01.14.13.39.22.73.27v.27h-3.7v-.27c.43-.04.7-.08.82-.14.12-.05.18-.19.18-.4,0-.07-.02-.2-.07-.37-.05-.18-.11-.37-.2-.57l-.58-1.4h-3.83c-.38.95-.6,1.53-.68,1.74-.07.21-.11.38-.11.5,0,.25.1.42.3.51.12.06.35.1.69.13v.27h-2.88Zm6.27-3.74l-1.67-4.01-1.68,4.01h3.34Z" style="fill:#be9e55;"/><path d="m57.71,58.25c.56-.05.91-.16,1.05-.33.14-.17.21-.55.21-1.15v-6.3c0-.51-.08-.85-.23-1.01-.15-.16-.49-.26-1.02-.3v-.27h4.03c.84,0,1.54.11,2.1.32,1.06.4,1.59,1.14,1.59,2.22,0,.72-.24,1.28-.71,1.67-.47.39-1.11.64-1.92.76l3,3.69c.18.22.37.39.55.49.18.1.42.17.71.2v.27h-2.34l-3.64-4.48-.64.04v2.87c0,.54.08.88.25,1.02.16.14.52.24,1.07.29v.27h-4.04v-.27Zm4.97-5.04c.77-.32,1.16-.91,1.16-1.79s-.35-1.42-1.04-1.72c-.37-.17-.86-.25-1.47-.25-.41,0-.66.03-.76.09-.09.06-.14.2-.14.42v3.58c1.05-.04,1.8-.15,2.25-.33" style="fill:#be9e55;"/><path d="m68.19,55.59c.25.65.53,1.18.86,1.56.58.68,1.29,1.02,2.15,1.02.46,0,.86-.15,1.2-.44.34-.29.51-.7.51-1.23,0-.47-.17-.89-.51-1.24-.22-.22-.69-.56-1.4-1l-1.24-.77c-.37-.24-.67-.48-.89-.72-.41-.46-.62-.97-.62-1.52,0-.73.24-1.35.73-1.83.49-.49,1.13-.73,1.94-.73.33,0,.73.08,1.2.24.47.16.73.25.8.25.18,0,.3-.04.37-.13.07-.09.12-.21.16-.36h.3l.32,3.1h-.35c-.24-.93-.62-1.59-1.14-1.95-.52-.37-1.04-.55-1.55-.55-.4,0-.74.12-1.04.35-.3.24-.44.56-.44.98,0,.37.11.69.34.96.23.27.58.55,1.06.84l1.28.79c.8.49,1.36.95,1.69,1.36.32.42.49.91.49,1.48,0,.76-.29,1.4-.86,1.91-.58.51-1.31.77-2.21.77-.45,0-.92-.08-1.41-.25-.49-.17-.77-.26-.84-.26-.17,0-.29.05-.35.16-.06.1-.1.22-.12.33h-.32l-.43-3.1h.33Z" style="fill:#be9e55;"/><path d="m12.66,72.63v-.2c.28-.03.5-.14.64-.32.14-.18.38-.68.73-1.49l2.29-5.4h.22l2.74,6.24c.18.41.33.67.44.77.11.1.29.17.55.2v.2h-2.8v-.2c.32-.03.53-.06.62-.1.09-.04.14-.14.14-.3,0-.05-.02-.15-.05-.28-.04-.14-.09-.28-.15-.43l-.44-1.06h-2.9c-.29.72-.46,1.16-.51,1.32-.06.16-.08.28-.08.38,0,.18.08.31.23.38.09.04.27.08.52.1v.2h-2.18Zm4.74-2.83l-1.26-3.03-1.27,3.03h2.53Z" style="fill:#be9e55;"/><path d="m20.56,72.43c.45-.05.75-.15.88-.31.13-.16.19-.53.19-1.11v-4.85l-.15-.18c-.16-.19-.3-.31-.41-.35-.11-.04-.28-.07-.51-.08v-.2h1.88l4.25,5.26v-3.65c0-.6-.09-.99-.27-1.18-.12-.12-.38-.19-.79-.23v-.2h2.58v.2c-.42.04-.7.14-.84.31-.14.16-.21.53-.21,1.11v5.79h-.19l-4.87-6.03v4.28c0,.6.09.99.26,1.18.12.12.37.2.77.24v.2h-2.58v-.2Z" style="fill:#be9e55;"/><path d="m28.51,72.43c.45-.05.75-.15.88-.31.13-.16.19-.53.19-1.11v-4.85l-.15-.18c-.16-.19-.3-.31-.41-.35-.11-.04-.28-.07-.51-.08v-.2h1.88l4.25,5.26v-3.65c0-.6-.09-.99-.27-1.18-.12-.12-.38-.19-.79-.23v-.2h2.58v.2c-.42.04-.7.14-.84.31-.14.16-.21.53-.21,1.11v5.79h-.19l-4.87-6.03v4.28c0,.6.09.99.26,1.18.12.12.37.2.77.24v.2h-2.58v-.2Z" style="fill:#be9e55;"/><path d="m36.51,72.43c.45-.03.74-.1.87-.2.13-.1.2-.36.2-.79v-4.89c0-.4-.07-.67-.2-.78-.13-.12-.42-.19-.87-.21v-.2h3.25v.2c-.45.02-.74.09-.87.21-.13.12-.2.38-.2.78v4.89c0,.42.07.69.2.79.13.1.42.17.87.2v.2h-3.25v-.2Z" style="fill:#be9e55;"/><path d="m43.1,65.35v.19c-.28,0-.46.02-.56.06-.18.06-.26.18-.26.35,0,.09.03.22.1.38.06.16.18.43.35.82l1.72,3.83,1.56-4.14c.07-.18.12-.34.16-.47.04-.13.05-.23.05-.31,0-.21-.09-.36-.27-.44-.11-.04-.28-.07-.53-.08v-.19h2.25v.19c-.23.03-.4.1-.52.19-.17.14-.33.42-.5.84l-2.44,6.19h-.16l-2.72-6.05c-.23-.51-.41-.83-.55-.96-.14-.12-.34-.2-.61-.21v-.19h2.93Z" style="fill:#be9e55;"/><path d="m48.06,72.43c.4-.04.67-.11.79-.22.12-.1.18-.36.18-.77v-4.89c0-.39-.06-.64-.18-.76-.12-.12-.38-.19-.79-.22v-.2h5.84l.04,1.57h-.28c-.09-.48-.23-.8-.42-.94-.19-.14-.6-.21-1.25-.21h-1.5c-.16,0-.26.03-.3.08-.04.05-.06.15-.06.29v2.46h1.7c.47,0,.77-.07.9-.21s.23-.42.31-.84h.26v2.54h-.26c-.08-.43-.19-.71-.32-.85-.13-.14-.43-.21-.89-.21h-1.7v2.72c0,.22.07.35.21.39.14.04.55.06,1.24.06.75,0,1.3-.08,1.65-.24.36-.16.67-.56.96-1.18h.3l-.5,1.86h-5.95v-.2Z" style="fill:#be9e55;"/><path d="m54.78,72.43c.42-.04.69-.12.79-.25.1-.12.16-.42.16-.87v-4.76c0-.39-.06-.64-.17-.76s-.37-.19-.77-.23v-.2h3.05c.63,0,1.16.08,1.58.24.8.3,1.2.86,1.2,1.68,0,.55-.18.97-.54,1.26-.36.29-.84.49-1.45.58l2.27,2.79c.14.17.28.3.42.37.14.08.32.13.54.15v.21h-1.77l-2.75-3.39-.48.03v2.17c0,.41.06.67.18.77.12.11.39.18.81.22v.21h-3.06v-.21Zm3.76-3.81c.58-.24.88-.69.88-1.35s-.26-1.07-.78-1.3c-.28-.12-.65-.19-1.11-.19-.31,0-.5.02-.57.07s-.11.15-.11.31v2.71c.79-.03,1.36-.11,1.7-.25" style="fill:#be9e55;"/><path d="m62.7,70.42c.19.49.4.89.65,1.18.44.51.98.77,1.62.77.35,0,.65-.11.91-.33.26-.22.38-.53.38-.93,0-.36-.13-.67-.39-.93-.17-.17-.52-.42-1.06-.76l-.94-.59c-.28-.18-.51-.36-.68-.54-.31-.35-.47-.73-.47-1.15,0-.56.18-1.02.55-1.39.37-.37.86-.55,1.47-.55.25,0,.55.06.9.19.35.12.55.18.6.18.14,0,.23-.03.28-.1.05-.06.09-.16.12-.27h.23l.24,2.34h-.26c-.18-.71-.47-1.2-.86-1.48-.39-.28-.79-.42-1.17-.42-.3,0-.56.09-.79.27-.22.18-.33.42-.33.74,0,.28.08.53.26.73.17.2.44.42.8.64l.97.6c.6.37,1.03.72,1.28,1.03.24.32.37.69.37,1.12,0,.58-.22,1.06-.65,1.44-.43.39-.99.58-1.67.58-.34,0-.7-.06-1.07-.19-.37-.13-.58-.19-.64-.19-.13,0-.22.04-.26.12-.05.08-.07.16-.09.25h-.24l-.33-2.34h.25Z" style="fill:#be9e55;"/><path d="m68.27,72.63v-.2c.28-.03.5-.14.64-.32.14-.18.38-.68.73-1.49l2.29-5.4h.22l2.74,6.24c.18.41.33.67.44.77.11.1.29.17.55.2v.2h-2.8v-.2c.32-.03.53-.06.62-.1.09-.04.14-.14.14-.3,0-.05-.02-.15-.05-.28-.04-.14-.09-.28-.15-.43l-.44-1.06h-2.9c-.29.72-.46,1.16-.51,1.32-.06.16-.08.28-.08.38,0,.18.08.31.23.38.09.04.27.08.52.1v.2h-2.18Zm4.74-2.83l-1.26-3.03-1.27,3.03h2.53Z" style="fill:#be9e55;"/><path d="m76.18,72.43c.42-.04.69-.12.79-.25.1-.12.16-.42.16-.87v-4.76c0-.39-.06-.64-.17-.76s-.37-.19-.77-.23v-.2h3.05c.63,0,1.16.08,1.58.24.8.3,1.2.86,1.2,1.68,0,.55-.18.97-.54,1.26-.36.29-.84.49-1.45.58l2.27,2.79c.14.17.28.3.42.37.14.08.32.13.54.15v.21h-1.77l-2.75-3.39-.48.03v2.17c0,.41.06.67.18.77.12.11.39.18.81.22v.21h-3.06v-.21Zm3.76-3.81c.58-.24.88-.69.88-1.35s-.26-1.07-.78-1.3c-.28-.12-.65-.19-1.11-.19-.31,0-.5.02-.57.07s-.11.15-.11.31v2.71c.79-.03,1.36-.11,1.7-.25" style="fill:#be9e55;"/><path d="m86.11,65.35v.2c-.26,0-.45.01-.58.06-.13.05-.19.15-.19.3,0,.05.01.11.03.18.02.07.07.16.14.28l1.62,2.37,1.58-2.41c.06-.1.11-.19.13-.26.02-.07.03-.12.03-.15,0-.16-.08-.26-.25-.31-.1-.03-.27-.05-.52-.06v-.2h2.4v.2c-.22.01-.42.08-.6.2-.27.19-.58.54-.92,1.06l-1.62,2.48v2.14c0,.43.07.69.21.8.14.1.45.17.93.19v.2h-3.36v-.2c.5-.03.81-.1.93-.22.12-.12.18-.42.18-.9v-1.91l-1.44-2.11c-.5-.73-.85-1.19-1.05-1.4s-.44-.32-.73-.33v-.2h3.08Z" style="fill:#be9e55;"/></g><path d="m51.81,32.71l-2.44,8.58h-21.4v-.5l5.64-6.24c5.44-5.99,10.52-12.72,10.52-18.8,0-4.99-2.64-7.88-6.73-7.88-3.79,0-6.44,2.99-7.43,7.88h-1.1c.4-7.28,5.14-11.37,10.87-11.37s9.68,3.79,9.68,9.18c0,7.48-7.68,15.01-16.06,23.24h9.78c4.59,0,6.43-.7,8.08-4.09h.6Z" style="fill:#be9e55;"/><path d="m53.76,23.23c0-11.17,4.99-18.86,13.32-18.86s13.27,7.28,13.27,18.65-5.04,18.86-13.37,18.86-13.22-7.28-13.22-18.65m21-.1c0-10.08-2.3-17.46-7.78-17.46s-7.63,7.08-7.63,17.46,2.24,17.46,7.78,17.46,7.63-7.08,7.63-17.46" style="fill:#be9e55;"/></g></svg>